<?xml version="1.0" encoding="UTF-8"?>
<svg id="Layer_1" data-name="Layer 1" xmlns="http://www.w3.org/2000/svg" xmlns:xlink="http://www.w3.org/1999/xlink" viewBox="0 0 203.21 203.2">
  <defs>
    <style>
      .cls-1 {
        fill: none;
        stroke: #fed900;
        stroke-miterlimit: 10;
      }

      .cls-2 {
        fill: url(#linear-gradient);
      }
    </style>
    <linearGradient id="linear-gradient" x1="74.1" y1="101.6" x2="202.71" y2="101.6" gradientUnits="userSpaceOnUse">
      <stop offset="0" stop-color="#ffb437"/>
      <stop offset="1" stop-color="#fed900"/>
    </linearGradient>
  </defs>
  <path class="cls-1" d="M202.71,101.58c0,55.88-45.29,101.12-101.1,101.12-26.82,0-52.55-10.63-71.52-29.6C11.13,154.13.5,128.4.5,101.58S11.13,49.07,30.09,30.1C49.06,11.13,74.79.5,101.61.5c55.81,0,101.1,45.25,101.1,101.08Z"/>
  <path class="cls-2" d="M104.95.5c53.96,0,97.76,45.25,97.76,101.08,0,26.82-10.32,52.55-28.66,71.52-18.34,18.97-43.17,29.6-69.1,29.6-10.41-.05-20.73-1.84-30.61-5.27,40.02-13.61,67.1-52.25,67.14-95.86,0-43.66-27.27-82.36-67.38-95.91,9.93-3.43,20.34-5.16,30.85-5.16Z"/>
</svg>